<svg width="60" height="60" fill="none" xmlns="http://www.w3.org/2000/svg"><path fill-rule="evenodd" clip-rule="evenodd" d="M30 60c12.15 0 22-9.85 22-22s-9.85-22-22-22S8 25.85 8 38s9.85 22 22 22z" fill="#000" fill-opacity=".01"/><path fill-rule="evenodd" clip-rule="evenodd" d="M30 60c16.569 0 30-13.431 30-30C60 13.431 46.569 0 30 0 13.431 0 0 13.431 0 30c0 16.569 13.431 30 30 30z" fill="#2196F3"/><path d="M58 30c0 15.464-12.536 28-28 28S2 45.464 2 30 14.536 2 30 2s28 12.536 28 28z" stroke="#42A5F5" stroke-width="4"/><mask id="a" style="mask-type:luminance" maskUnits="userSpaceOnUse" x="0" y="0" width="60" height="60"><path fill-rule="evenodd" clip-rule="evenodd" d="M30 60c16.569 0 30-13.431 30-30C60 13.431 46.569 0 30 0 13.431 0 0 13.431 0 30c0 16.569 13.431 30 30 30z" fill="#fff"/></mask><g mask="url(#a)" stroke="#42A5F5" stroke-width="4"><path d="M2.714 22.875h53.822M2.714 38.625h53.822" stroke-linecap="square"/><path d="M29.25 4.5s-9.962 11.578-9.746 26.25c.215 14.672 9.746 24.75 9.746 24.75M30 4.5s9.962 11.578 9.746 26.25C39.531 45.422 30 55.5 30 55.5" stroke-linecap="round" stroke-linejoin="round"/></g><path fill-rule="evenodd" clip-rule="evenodd" d="M40.194 19.028c.2-.115.421-.187.651-.202 1.017-.064 3.953-.148 4.59.955.636 1.103-.905 3.603-1.47 4.45-.127.193-.3.348-.499.463l-6.076 3.508.844 17.1a.65.65 0 0 1-.315.59l-1.25.748a.65.65 0 0 1-.545.056l-.947-.327a.649.649 0 0 1-.366-.318L28.353 33.42l-6.369 3.678-.687 4.671a.65.65 0 0 1-.655.555l-.497-.01a.65.65 0 0 1-.581-.385l-1.79-4.015c-1.23.039-2.385-.082-2.695-.619-.31-.536.164-1.592.814-2.633l-2.564-3.53a.65.65 0 0 1-.043-.696l.241-.436a.65.65 0 0 1 .808-.29l4.362 1.73 6.38-3.683-7.658-11.829a.65.65 0 0 1-.092-.476l.19-.984a.649.649 0 0 1 .322-.444l1.272-.708a.649.649 0 0 1 .668.022l14.298 9.223 6.117-3.532z" fill="#fff"/><mask id="b" style="mask-type:luminance" maskUnits="userSpaceOnUse" x="13" y="13" width="33" height="34"><path fill-rule="evenodd" clip-rule="evenodd" d="M40.194 19.028c.2-.115.421-.187.651-.202 1.017-.064 3.953-.148 4.59.955.636 1.103-.905 3.603-1.47 4.45-.127.193-.3.348-.499.463l-6.076 3.508.844 17.1a.65.65 0 0 1-.315.59l-1.25.748a.65.65 0 0 1-.545.056l-.947-.327a.649.649 0 0 1-.366-.318L28.353 33.42l-6.369 3.678-.687 4.671a.65.65 0 0 1-.655.555l-.497-.01a.65.65 0 0 1-.581-.385l-1.79-4.015c-1.23.039-2.385-.082-2.695-.619-.31-.536.164-1.592.814-2.633l-2.564-3.53a.65.65 0 0 1-.043-.696l.241-.436a.65.65 0 0 1 .808-.29l4.362 1.73 6.38-3.683-7.658-11.829a.65.65 0 0 1-.092-.476l.19-.984a.649.649 0 0 1 .322-.444l1.272-.708a.649.649 0 0 1 .668.022l14.298 9.223 6.117-3.532z" fill="#fff"/></mask><g mask="url(#b)"><path d="m35.19 21.917-.654-1.133-10.746 6.204.654 1.134 10.746-6.205z" fill="#EBECF2"/><path fill-rule="evenodd" clip-rule="evenodd" d="M37.92 45.891a.65.65 0 0 0 .314-.589l-.871-17.66-9.237 5.333 6.685 13.076a.65.65 0 0 0 .366.318l.947.327a.649.649 0 0 0 .546-.057l1.25-.748z" fill="#DEE1E3"/><path opacity=".4" fill-rule="evenodd" clip-rule="evenodd" d="m17.837 37.802-.09.051 1.817 4.076a.65.65 0 0 0 .58.385l.499.01a.65.65 0 0 0 .654-.556l.726-4.934-.463.267a1.63 1.63 0 0 1-.459.18c-.55.124-1.946.415-3.264.52z" fill="#DEE1E3"/><path fill-rule="evenodd" clip-rule="evenodd" d="m28.248 33.214 9.13-5.27.099 2.01-7.521 6.6-1.708-3.34z" fill="#C5C6CC"/><path fill-rule="evenodd" clip-rule="evenodd" d="m46.482 22.953-29.79 17.2s-.88-1.589-1.613-2.859a.875.875 0 0 1-.025-.046c1.351.097 4.073-.012 6.712-1.536l20.625-11.908c2.291-1.323 2.852-3.036 3.162-3.773.478 1.285.93 2.922.93 2.922z" fill="#DEE1E3"/></g></svg>